<?xml version="1.0" encoding="UTF-8"?>
<svg xmlns="http://www.w3.org/2000/svg" xmlns:xlink="http://www.w3.org/1999/xlink" width="375pt" height="374.999991pt" viewBox="0 0 375 374.999991" version="1.2">
<g id="surface1">
<path style=" stroke:none;fill-rule:nonzero;fill:rgb(19.999695%,21.179199%,22.749329%);fill-opacity:1;" d="M 285.445312 76.535156 C 341.015625 132.109375 341.027344 222.207031 285.453125 277.785156 C 229.882812 333.355469 139.769531 333.351562 84.199219 277.78125 C 28.625 222.199219 28.625 132.089844 84.195312 76.53125 C 139.777344 20.945312 229.871094 20.953125 285.445312 76.535156 Z M 285.445312 76.535156 "/>
<path style=" stroke:none;fill-rule:nonzero;fill:rgb(29.798889%,31.369019%,32.939148%);fill-opacity:1;" d="M 267.625 94.351562 C 313.347656 140.082031 313.347656 214.226562 267.621094 259.957031 C 221.894531 305.675781 147.746094 305.675781 102.015625 259.960938 C 56.289062 214.222656 56.289062 140.085938 102.015625 94.355469 C 147.75 48.625 221.894531 48.617188 267.625 94.351562 Z M 267.625 94.351562 "/>
<path style=" stroke:none;fill-rule:nonzero;fill:rgb(77.648926%,23.529053%,23.529053%);fill-opacity:1;" d="M 285.445312 76.535156 C 257.65625 48.742188 221.238281 34.84375 184.816406 34.847656 L 184.816406 177.148438 L 327.128906 177.148438 C 327.128906 140.734375 313.230469 104.320312 285.445312 76.535156 Z M 285.445312 76.535156 "/>
<path style=" stroke:none;fill-rule:nonzero;fill:rgb(91.758728%,32.939148%,32.939148%);fill-opacity:1;" d="M 267.625 94.351562 C 244.761719 71.484375 214.789062 60.050781 184.816406 60.050781 L 184.816406 177.148438 L 301.917969 177.148438 C 301.917969 147.183594 290.488281 117.21875 267.625 94.351562 Z M 267.625 94.351562 "/>
<path style="fill:none;stroke-width:3;stroke-linecap:round;stroke-linejoin:round;stroke:rgb(19.999695%,21.179199%,22.749329%);stroke-opacity:1;stroke-miterlimit:10;" d="M 113.419261 26.580626 C 101.427574 14.587253 85.712294 8.589723 69.995328 8.591409 L 69.995328 69.997817 L 131.406793 69.997817 C 131.406793 54.284222 125.409263 38.570628 113.419261 26.580626 Z M 113.419261 26.580626 " transform="matrix(2.31736,0,0,2.31736,22.612001,14.938265)"/>
<path style="fill:none;stroke-width:3;stroke-linecap:round;stroke-linejoin:round;stroke:rgb(19.999695%,21.179199%,22.749329%);stroke-opacity:1;stroke-miterlimit:10;" d="M 113.419261 26.580626 C 137.399265 50.562315 137.404322 89.441746 113.422633 113.425121 C 89.442629 137.405125 50.556455 137.40344 26.576451 113.423436 C 2.594762 89.438375 2.594762 50.553887 26.574766 26.57894 C 50.559826 2.592194 89.437572 2.595565 113.419261 26.580626 Z M 113.419261 26.580626 " transform="matrix(2.31736,0,0,2.31736,22.612001,14.938265)"/>
<path style=" stroke:none;fill-rule:nonzero;fill:rgb(71.369934%,77.648926%,77.249146%);fill-opacity:1;" d="M 110.988281 103.324219 C 109.359375 104.953125 106.710938 104.945312 105.074219 103.316406 L 93.265625 91.5 C 91.625 89.867188 91.625 87.222656 93.257812 85.589844 C 94.894531 83.957031 97.535156 83.953125 99.171875 85.589844 L 110.988281 97.40625 C 112.617188 99.039062 112.621094 101.6875 110.988281 103.324219 Z M 110.988281 103.324219 "/>
<path style=" stroke:none;fill-rule:nonzero;fill:rgb(71.369934%,77.648926%,77.249146%);fill-opacity:1;" d="M 276.386719 268.710938 C 274.753906 270.339844 272.109375 270.339844 270.472656 268.707031 L 258.65625 256.890625 C 257.027344 255.261719 257.023438 252.613281 258.65625 250.984375 C 260.285156 249.347656 262.9375 249.347656 264.5625 250.980469 L 276.386719 262.800781 C 278.015625 264.433594 278.015625 267.078125 276.386719 268.710938 Z M 276.386719 268.710938 "/>
<path style=" stroke:none;fill-rule:nonzero;fill:rgb(71.369934%,77.648926%,77.249146%);fill-opacity:1;" d="M 187.773438 71.507812 C 187.015625 72.265625 185.976562 72.726562 184.828125 72.730469 C 182.515625 72.734375 180.644531 70.859375 180.648438 68.550781 L 180.648438 51.84375 C 180.648438 49.539062 182.515625 47.664062 184.828125 47.664062 C 187.128906 47.660156 189 49.535156 189 51.84375 L 189 68.550781 C 189 69.707031 188.535156 70.75 187.773438 71.507812 Z M 187.773438 71.507812 "/>
<path style=" stroke:none;fill-rule:nonzero;fill:rgb(71.369934%,77.648926%,77.249146%);fill-opacity:1;" d="M 187.777344 305.417969 C 187.023438 306.171875 185.972656 306.640625 184.828125 306.640625 C 182.515625 306.640625 180.644531 304.765625 180.644531 302.460938 L 180.648438 285.757812 C 180.644531 283.445312 182.515625 281.570312 184.828125 281.574219 C 187.128906 281.574219 189 283.445312 189 285.753906 L 188.996094 302.46875 C 189 303.613281 188.535156 304.664062 187.777344 305.417969 Z M 187.777344 305.417969 "/>
<path style=" stroke:none;fill-rule:nonzero;fill:rgb(71.369934%,77.648926%,77.249146%);fill-opacity:1;" d="M 276.386719 91.507812 L 264.566406 103.320312 C 262.941406 104.945312 260.285156 104.953125 258.65625 103.320312 C 257.027344 101.691406 257.03125 99.03125 258.660156 97.410156 L 270.472656 85.59375 C 272.105469 83.964844 274.757812 83.960938 276.386719 85.59375 C 278.015625 87.222656 278.015625 89.875 276.386719 91.507812 Z M 276.386719 91.507812 "/>
<path style=" stroke:none;fill-rule:nonzero;fill:rgb(71.369934%,77.648926%,77.249146%);fill-opacity:1;" d="M 110.988281 256.917969 L 99.171875 268.730469 C 97.542969 270.363281 94.894531 270.359375 93.257812 268.730469 C 91.625 267.097656 91.625 264.453125 93.257812 262.820312 L 105.074219 251.003906 C 106.707031 249.375 109.355469 249.371094 110.988281 251.003906 C 112.617188 252.632812 112.617188 255.285156 110.988281 256.917969 Z M 110.988281 256.917969 "/>
<path style=" stroke:none;fill-rule:nonzero;fill:rgb(71.369934%,77.648926%,77.249146%);fill-opacity:1;" d="M 313.09375 180.113281 C 312.34375 180.867188 311.292969 181.335938 310.144531 181.332031 L 293.433594 181.335938 C 291.125 181.339844 289.253906 179.464844 289.253906 177.15625 C 289.253906 174.84375 291.125 172.972656 293.433594 172.976562 L 310.136719 172.972656 C 312.445312 172.96875 314.320312 174.84375 314.320312 177.152344 C 314.3125 178.308594 313.851562 179.351562 313.09375 180.113281 Z M 313.09375 180.113281 "/>
<path style=" stroke:none;fill-rule:nonzero;fill:rgb(71.369934%,77.648926%,77.249146%);fill-opacity:1;" d="M 79.179688 180.109375 C 78.417969 180.863281 77.375 181.332031 76.222656 181.335938 L 59.507812 181.332031 C 57.207031 181.335938 55.332031 179.460938 55.335938 177.152344 C 55.332031 174.851562 57.207031 172.976562 59.507812 172.976562 L 76.230469 172.972656 C 78.53125 172.972656 80.402344 174.84375 80.402344 177.152344 C 80.402344 178.308594 79.929688 179.351562 79.179688 180.109375 Z M 79.179688 180.109375 "/>
<path style=" stroke:none;fill-rule:nonzero;fill:rgb(71.369934%,77.648926%,77.249146%);fill-opacity:1;" d="M 80.90625 150.027344 C 80.570312 150.371094 80.058594 150.535156 79.5625 150.394531 L 63.417969 146.070312 C 62.679688 145.867188 62.238281 145.105469 62.4375 144.359375 C 62.640625 143.617188 63.398438 143.175781 64.140625 143.382812 L 80.28125 147.699219 C 81.023438 147.902344 81.464844 148.664062 81.273438 149.40625 C 81.203125 149.652344 81.078125 149.863281 80.90625 150.027344 Z M 80.90625 150.027344 "/>
<path style=" stroke:none;fill-rule:nonzero;fill:rgb(71.369934%,77.648926%,77.249146%);fill-opacity:1;" d="M 306.859375 210.570312 C 306.519531 210.914062 306.019531 211.066406 305.515625 210.929688 L 289.371094 206.605469 C 288.628906 206.40625 288.1875 205.648438 288.386719 204.902344 C 288.582031 204.164062 289.347656 203.71875 290.09375 203.917969 L 306.230469 208.246094 C 306.980469 208.445312 307.414062 209.210938 307.210938 209.949219 C 307.148438 210.195312 307.027344 210.40625 306.859375 210.570312 Z M 306.859375 210.570312 "/>
<path style=" stroke:none;fill-rule:nonzero;fill:rgb(71.369934%,77.648926%,77.249146%);fill-opacity:1;" d="M 131.507812 84.089844 C 131.421875 84.171875 131.324219 84.242188 131.21875 84.308594 C 130.554688 84.691406 129.707031 84.464844 129.316406 83.796875 L 120.964844 69.328125 C 120.574219 68.660156 120.800781 67.804688 121.476562 67.425781 C 122.140625 67.039062 122.984375 67.273438 123.371094 67.941406 L 131.730469 82.410156 C 132.050781 82.964844 131.949219 83.652344 131.507812 84.089844 Z M 131.507812 84.089844 "/>
<path style=" stroke:none;fill-rule:nonzero;fill:rgb(71.369934%,77.648926%,77.249146%);fill-opacity:1;" d="M 248.464844 286.671875 C 248.375 286.753906 248.289062 286.828125 248.179688 286.894531 C 247.507812 287.28125 246.65625 287.050781 246.269531 286.386719 L 237.917969 271.914062 C 237.535156 271.246094 237.753906 270.402344 238.425781 270.011719 C 239.09375 269.628906 239.945312 269.859375 240.332031 270.523438 L 248.683594 284.996094 C 249.007812 285.550781 248.898438 286.238281 248.464844 286.671875 Z M 248.464844 286.671875 "/>
<path style=" stroke:none;fill-rule:nonzero;fill:rgb(71.369934%,77.648926%,77.249146%);fill-opacity:1;" d="M 213.917969 73.238281 C 213.582031 73.578125 213.070312 73.730469 212.566406 73.601562 C 211.828125 73.398438 211.386719 72.636719 211.582031 71.898438 L 215.90625 55.753906 C 216.105469 55.011719 216.871094 54.570312 217.617188 54.765625 C 218.355469 54.96875 218.804688 55.734375 218.601562 56.472656 L 214.273438 72.613281 C 214.210938 72.855469 214.078125 73.074219 213.917969 73.238281 Z M 213.917969 73.238281 "/>
<path style=" stroke:none;fill-rule:nonzero;fill:rgb(71.369934%,77.648926%,77.249146%);fill-opacity:1;" d="M 153.371094 299.1875 C 153.035156 299.523438 152.527344 299.679688 152.03125 299.542969 C 151.289062 299.339844 150.84375 298.585938 151.042969 297.839844 L 155.371094 281.695312 C 155.570312 280.949219 156.335938 280.511719 157.078125 280.710938 C 157.820312 280.910156 158.257812 281.675781 158.058594 282.417969 L 153.734375 298.554688 C 153.675781 298.804688 153.542969 299.011719 153.371094 299.1875 Z M 153.371094 299.1875 "/>
<path style=" stroke:none;fill-rule:nonzero;fill:rgb(71.369934%,77.648926%,77.249146%);fill-opacity:1;" d="M 294.324219 115.488281 C 294.246094 115.570312 294.152344 115.640625 294.039062 115.707031 L 279.566406 124.058594 C 278.902344 124.449219 278.046875 124.21875 277.667969 123.554688 C 277.277344 122.886719 277.503906 122.03125 278.175781 121.65625 L 292.644531 113.296875 C 293.320312 112.910156 294.164062 113.140625 294.550781 113.804688 C 294.871094 114.359375 294.761719 115.050781 294.324219 115.488281 Z M 294.324219 115.488281 "/>
<path style=" stroke:none;fill-rule:nonzero;fill:rgb(71.369934%,77.648926%,77.249146%);fill-opacity:1;" d="M 91.757812 232.445312 C 91.671875 232.523438 91.582031 232.597656 91.46875 232.664062 L 77 241.019531 C 76.332031 241.402344 75.484375 241.175781 75.097656 240.511719 C 74.707031 239.839844 74.9375 238.992188 75.605469 238.605469 L 90.074219 230.253906 C 90.746094 229.863281 91.59375 230.097656 91.980469 230.761719 C 92.304688 231.320312 92.195312 232.003906 91.757812 232.445312 Z M 91.757812 232.445312 "/>
<path style=" stroke:none;fill-rule:nonzero;fill:rgb(71.369934%,77.648926%,77.249146%);fill-opacity:1;" d="M 80.902344 206.253906 C 80.742188 206.414062 80.53125 206.542969 80.285156 206.613281 L 64.144531 210.933594 C 63.394531 211.136719 62.640625 210.691406 62.4375 209.949219 C 62.238281 209.203125 62.679688 208.441406 63.421875 208.242188 L 79.5625 203.917969 C 80.304688 203.71875 81.070312 204.15625 81.269531 204.902344 C 81.402344 205.398438 81.253906 205.90625 80.902344 206.253906 Z M 80.902344 206.253906 "/>
<path style=" stroke:none;fill-rule:nonzero;fill:rgb(71.369934%,77.648926%,77.249146%);fill-opacity:1;" d="M 306.859375 145.710938 C 306.691406 145.878906 306.480469 146.003906 306.230469 146.070312 L 290.089844 150.394531 C 289.355469 150.597656 288.585938 150.152344 288.386719 149.414062 C 288.191406 148.664062 288.625 147.902344 289.371094 147.699219 L 305.511719 143.378906 C 306.253906 143.179688 307.019531 143.617188 307.214844 144.359375 C 307.351562 144.859375 307.199219 145.371094 306.859375 145.710938 Z M 306.859375 145.710938 "/>
<path style=" stroke:none;fill-rule:nonzero;fill:rgb(71.369934%,77.648926%,77.249146%);fill-opacity:1;" d="M 91.757812 123.835938 C 91.320312 124.277344 90.636719 124.382812 90.078125 124.0625 L 75.601562 115.710938 C 74.9375 115.320312 74.707031 114.472656 75.09375 113.804688 C 75.476562 113.132812 76.324219 112.910156 76.996094 113.292969 L 91.464844 121.648438 C 92.136719 122.03125 92.363281 122.878906 91.976562 123.546875 C 91.910156 123.660156 91.84375 123.757812 91.757812 123.835938 Z M 91.757812 123.835938 "/>
<path style=" stroke:none;fill-rule:nonzero;fill:rgb(71.369934%,77.648926%,77.249146%);fill-opacity:1;" d="M 294.324219 240.796875 C 293.890625 241.226562 293.207031 241.339844 292.640625 241.015625 L 278.175781 232.664062 C 277.511719 232.273438 277.28125 231.421875 277.660156 230.757812 C 278.039062 230.097656 278.902344 229.863281 279.566406 230.25 L 294.03125 238.605469 C 294.699219 238.988281 294.933594 239.835938 294.550781 240.5 C 294.484375 240.617188 294.410156 240.710938 294.324219 240.796875 Z M 294.324219 240.796875 "/>
<path style=" stroke:none;fill-rule:nonzero;fill:rgb(71.369934%,77.648926%,77.249146%);fill-opacity:1;" d="M 157.699219 73.242188 C 157.53125 73.40625 157.324219 73.539062 157.078125 73.601562 C 156.335938 73.800781 155.570312 73.359375 155.371094 72.613281 L 151.050781 56.472656 C 150.84375 55.734375 151.285156 54.972656 152.03125 54.769531 C 152.769531 54.578125 153.535156 55.011719 153.734375 55.753906 L 158.058594 71.894531 C 158.207031 72.386719 158.035156 72.90625 157.699219 73.242188 Z M 157.699219 73.242188 "/>
<path style=" stroke:none;fill-rule:nonzero;fill:rgb(71.369934%,77.648926%,77.249146%);fill-opacity:1;" d="M 218.238281 299.1875 C 218.070312 299.351562 217.859375 299.480469 217.617188 299.539062 C 216.871094 299.742188 216.117188 299.300781 215.90625 298.5625 L 211.585938 282.414062 C 211.390625 281.671875 211.828125 280.914062 212.574219 280.710938 C 213.316406 280.511719 214.074219 280.949219 214.273438 281.691406 L 218.597656 297.839844 C 218.734375 298.335938 218.582031 298.84375 218.238281 299.1875 Z M 218.238281 299.1875 "/>
<path style=" stroke:none;fill-rule:nonzero;fill:rgb(71.369934%,77.648926%,77.249146%);fill-opacity:1;" d="M 240.105469 84.089844 C 239.675781 84.523438 238.988281 84.632812 238.425781 84.308594 C 237.765625 83.929688 237.527344 83.074219 237.917969 82.40625 L 246.273438 67.933594 C 246.652344 67.269531 247.503906 67.039062 248.175781 67.425781 C 248.84375 67.8125 249.074219 68.660156 248.679688 69.328125 L 240.328125 83.804688 C 240.269531 83.910156 240.195312 84.003906 240.105469 84.089844 Z M 240.105469 84.089844 "/>
<path style=" stroke:none;fill-rule:nonzero;fill:rgb(71.369934%,77.648926%,77.249146%);fill-opacity:1;" d="M 123.15625 286.671875 C 122.71875 287.109375 122.035156 287.210938 121.46875 286.894531 C 120.804688 286.507812 120.582031 285.65625 120.964844 284.992188 L 129.316406 270.523438 C 129.695312 269.855469 130.558594 269.625 131.21875 270.011719 C 131.878906 270.394531 132.117188 271.246094 131.722656 271.914062 L 123.375 286.382812 C 123.3125 286.488281 123.242188 286.582031 123.15625 286.671875 Z M 123.15625 286.671875 "/>
<path style=" stroke:none;fill-rule:nonzero;fill:rgb(91.758728%,32.939148%,32.939148%);fill-opacity:1;" d="M 195.578125 177.152344 C 195.578125 183.089844 190.769531 187.902344 184.832031 187.902344 C 178.890625 187.902344 174.078125 183.089844 174.082031 177.15625 C 174.082031 171.222656 178.886719 166.398438 184.832031 166.402344 C 190.761719 166.40625 195.578125 171.21875 195.578125 177.152344 Z M 195.578125 177.152344 "/>
<path style=" stroke:none;fill-rule:nonzero;fill:rgb(86.669922%,25.099182%,25.099182%);fill-opacity:1;" d="M 184.832031 166.402344 C 190.761719 166.40625 195.578125 171.21875 195.578125 177.152344 C 195.578125 183.089844 190.769531 187.902344 184.832031 187.902344 "/>
<path style="fill:none;stroke-width:3;stroke-linecap:round;stroke-linejoin:round;stroke:rgb(19.999695%,21.179199%,22.749329%);stroke-opacity:1;stroke-miterlimit:10;" d="M 74.639283 69.999502 C 74.639283 72.561685 72.564253 74.638401 70.00207 74.638401 C 67.438202 74.638401 65.361486 72.561685 65.363172 70.001188 C 65.363172 67.440691 67.436517 65.358918 70.00207 65.360604 C 72.560881 65.362289 74.639283 67.439006 74.639283 69.999502 Z M 74.639283 69.999502 " transform="matrix(2.31736,0,0,2.31736,22.612001,14.938265)"/>
<path style=" stroke:none;fill-rule:nonzero;fill:rgb(100%,100%,100%);fill-opacity:1;" d="M 119.15625 202.9375 L 109.816406 202.9375 C 109.480469 202.9375 109.148438 203.011719 108.839844 203.152344 L 96.082031 209.085938 C 95.101562 209.542969 94.566406 210.625 94.796875 211.683594 L 96.652344 220.136719 C 96.800781 220.828125 97.261719 221.414062 97.898438 221.722656 C 98.53125 222.035156 99.273438 222.039062 99.914062 221.734375 L 105.941406 218.867188 L 105.941406 253.453125 C 105.941406 254.738281 106.976562 255.773438 108.257812 255.773438 L 119.15625 255.773438 C 120.4375 255.773438 121.476562 254.738281 121.476562 253.453125 L 121.476562 205.253906 C 121.476562 203.976562 120.4375 202.9375 119.15625 202.9375 Z M 119.15625 202.9375 "/>
<path style=" stroke:none;fill-rule:nonzero;fill:rgb(100%,100%,100%);fill-opacity:1;" d="M 164.632812 223.394531 C 161.109375 220.867188 156.125 219.476562 150.601562 219.476562 L 150.171875 219.476562 L 150.539062 216.84375 L 167.207031 216.84375 C 168.488281 216.84375 169.527344 215.808594 169.527344 214.527344 L 169.527344 205.257812 C 169.527344 203.976562 168.488281 202.9375 167.207031 202.9375 L 140.664062 202.9375 C 139.496094 202.9375 138.511719 203.808594 138.367188 204.964844 L 135.175781 230.253906 C 135.085938 230.972656 135.335938 231.691406 135.855469 232.199219 C 136.371094 232.707031 137.105469 232.945312 137.816406 232.832031 C 139.855469 232.53125 141.589844 232.414062 144.003906 232.414062 C 155.253906 232.414062 155.253906 236.699219 155.253906 238.105469 C 155.253906 242.070312 150.652344 243.128906 147.929688 243.128906 C 143.617188 243.128906 139.574219 241.726562 138.039062 240.984375 C 137.402344 240.679688 136.667969 240.675781 136.035156 240.976562 C 135.402344 241.28125 134.9375 241.855469 134.777344 242.539062 L 132.777344 250.988281 C 132.535156 252.015625 133.011719 253.078125 133.949219 253.574219 C 136.710938 255.027344 141.96875 256.582031 148.453125 256.582031 C 163.554688 256.582031 171.457031 246.914062 171.457031 237.359375 C 171.457031 231.230469 169.074219 226.386719 164.632812 223.394531 Z M 164.632812 223.394531 "/>
<path style=" stroke:none;fill-rule:nonzero;fill:rgb(19.999695%,21.179199%,22.749329%);fill-opacity:1;" d="M 119.15625 202.9375 C 120.4375 202.9375 121.476562 203.976562 121.476562 205.253906 L 121.476562 253.453125 C 121.476562 254.734375 120.4375 255.769531 119.15625 255.769531 L 108.257812 255.769531 C 106.976562 255.769531 105.941406 254.734375 105.941406 253.453125 L 105.941406 218.867188 L 99.914062 221.734375 C 99.597656 221.882812 99.257812 221.960938 98.917969 221.960938 C 98.566406 221.960938 98.21875 221.882812 97.898438 221.722656 C 97.261719 221.414062 96.800781 220.828125 96.652344 220.136719 L 94.796875 211.683594 C 94.566406 210.625 95.101562 209.542969 96.082031 209.085938 L 108.839844 203.152344 C 109.148438 203.011719 109.480469 202.9375 109.816406 202.9375 Z M 119.15625 195.984375 L 109.816406 195.984375 C 108.480469 195.984375 107.132812 196.28125 105.917969 196.847656 L 93.152344 202.785156 C 89.191406 204.625 87.078125 208.894531 88.003906 213.164062 L 89.863281 221.628906 C 90.464844 224.410156 92.292969 226.738281 94.878906 227.984375 C 96.089844 228.582031 97.507812 228.910156 98.917969 228.910156 L 98.988281 228.910156 L 98.988281 253.453125 C 98.988281 258.566406 103.148438 262.722656 108.257812 262.722656 L 119.15625 262.722656 C 124.265625 262.722656 128.425781 258.566406 128.425781 253.453125 L 128.425781 205.253906 C 128.425781 200.144531 124.269531 195.984375 119.15625 195.984375 Z M 119.15625 195.984375 "/>
<path style=" stroke:none;fill-rule:nonzero;fill:rgb(19.999695%,21.179199%,22.749329%);fill-opacity:1;" d="M 167.210938 202.9375 C 168.492188 202.9375 169.527344 203.976562 169.527344 205.253906 L 169.527344 214.523438 C 169.527344 215.804688 168.492188 216.839844 167.210938 216.839844 L 150.542969 216.839844 L 150.175781 219.472656 L 150.601562 219.472656 C 156.128906 219.472656 161.113281 220.867188 164.632812 223.390625 C 169.078125 226.386719 171.457031 231.230469 171.457031 237.359375 C 171.457031 246.914062 163.554688 256.582031 148.453125 256.582031 C 141.96875 256.582031 136.710938 255.027344 133.949219 253.574219 C 133.011719 253.078125 132.535156 252.015625 132.777344 250.988281 L 134.777344 242.539062 C 134.9375 241.855469 135.402344 241.28125 136.035156 240.976562 C 136.351562 240.828125 136.6875 240.753906 137.027344 240.753906 C 137.371094 240.753906 137.71875 240.832031 138.042969 240.984375 C 139.574219 241.722656 143.617188 243.128906 147.933594 243.128906 C 150.652344 243.128906 155.253906 242.070312 155.253906 238.105469 C 155.253906 236.699219 155.253906 232.414062 144.003906 232.414062 C 141.59375 232.414062 139.859375 232.53125 137.816406 232.832031 C 137.703125 232.851562 137.585938 232.859375 137.472656 232.859375 C 136.875 232.859375 136.289062 232.625 135.859375 232.199219 C 135.34375 231.691406 135.089844 230.972656 135.179688 230.253906 L 138.371094 204.964844 C 138.515625 203.808594 139.503906 202.9375 140.671875 202.9375 L 167.210938 202.9375 M 167.210938 195.984375 L 140.664062 195.984375 C 136 195.984375 132.042969 199.472656 131.46875 204.101562 L 128.277344 229.382812 C 127.949219 231.964844 128.75 234.589844 130.425781 236.5625 C 129.253906 237.753906 128.414062 239.25 128.015625 240.925781 L 126.011719 249.390625 C 125.03125 253.5 126.964844 257.757812 130.710938 259.726562 C 135.234375 262.113281 141.867188 263.539062 148.449219 263.539062 C 159.574219 263.539062 166.507812 259.242188 170.363281 255.636719 C 175.472656 250.855469 178.40625 244.195312 178.40625 237.363281 C 178.40625 231.222656 176.542969 225.839844 173.066406 221.703125 C 175.148438 220.003906 176.480469 217.414062 176.480469 214.523438 L 176.480469 205.253906 C 176.480469 200.144531 172.324219 195.984375 167.210938 195.984375 Z M 167.210938 195.984375 "/>
</g>
</svg>
